<svg xmlns="http://www.w3.org/2000/svg" viewBox="0 0 204.8 512"><defs><style>.cls-1{fill:#9e9e9e;}.cls-2{fill:#6e8691;}.cls-2,.cls-3{opacity:0.25;}.cls-3{fill:#0377bc;}.cls-4{fill:#f5f5f5;}</style></defs><title>pluviometre@2x</title><g id="Layer_2" data-name="Layer 2"><g id="Layer_1-2" data-name="Layer 1"><g id="Page-1"><rect id="Rectangle-path" class="cls-1" x="8.53" y="8.53" width="187.73" height="34.13" rx="8.53"/><rect class="cls-1" x="8.53" y="469.33" width="187.73" height="34.13" rx="8.53"/><rect class="cls-2" x="153.6" y="51.2" width="23.06" height="409.6"/><rect class="cls-3" x="34.13" y="51.2" width="136.53" height="409.6"/><path d="M187.73,336.6V51.2A17.07,17.07,0,0,0,204.8,34.13V17.07A17.07,17.07,0,0,0,187.73,0H17.07A17.07,17.07,0,0,0,0,17.07V34.13A17.07,17.07,0,0,0,17.07,51.2V460.8A17.07,17.07,0,0,0,0,477.87v17.06A17.07,17.07,0,0,0,17.07,512H187.73a17.07,17.07,0,0,0,17.07-17.07V477.87a17.07,17.07,0,0,0-17.07-17.07V336.6Zm-17.06-29.4V460.8H34.13V51.2H170.67v256ZM17.07,17.07H187.73V34.13H17.07ZM187.73,494.93H17.07V477.87H187.73Z"/><path class="cls-4" d="M134.73,102.4a8.53,8.53,0,0,1-8.53-8.53V76.8a8.54,8.54,0,0,1,17.07,0V93.87A8.53,8.53,0,0,1,134.73,102.4Z"/><path class="cls-4" d="M134.73,213.33a8.53,8.53,0,0,1-8.53-8.53V128a8.54,8.54,0,0,1,17.07,0v76.8A8.53,8.53,0,0,1,134.73,213.33Z"/></g></g></g></svg>